<svg xmlns="http://www.w3.org/2000/svg" width="31" height="36" viewBox="0 0 31 36">
    <g fill="none" fill-rule="evenodd">
        <g fill="#000" fill-rule="nonzero">
            <g>
                <path d="M55.5 38c1.342 0 2.582-.357 3.72-1.072 1.139-.715 2.053-1.685 2.744-2.909.69-1.224 1.036-2.602 1.036-4.135 0-1.481-.345-2.818-1.036-4.01-.69-1.191-1.605-2.135-2.744-2.83C58.082 22.347 56.842 22 55.5 22s-2.585.351-3.73 1.053-2.062 1.652-2.753 2.85c-.691 1.198-1.03 2.538-1.017 4.02 0 1.507.342 2.872 1.027 4.096.684 1.224 1.595 2.194 2.733 2.909C52.898 37.643 54.145 38 55.5 38zm11.48 20c1.488 0 2.53-.264 3.127-.791.595-.528.893-1.303.893-2.326 0-1.47-.36-3.01-1.078-4.616-.719-1.606-1.755-3.113-3.108-4.52-1.353-1.406-2.981-2.55-4.885-3.428C60.026 41.439 57.883 41 55.5 41s-4.529.44-6.439 1.319c-1.91.879-3.538 2.022-4.885 3.429-1.347 1.406-2.38 2.913-3.098 4.52C40.359 51.873 40 53.411 40 54.882c0 1.023.298 1.798.893 2.326.596.527 1.632.791 3.108.791H66.98z" transform="translate(-740.000000, -575.000000) translate(700.000000, 553.000000)"/>
            </g>
        </g>
    </g>
</svg>
