<svg xmlns="http://www.w3.org/2000/svg" width="602" height="126" viewBox="0 0 602 126">
    <g fill="none" fill-rule="evenodd">
        <g fill="#85CDB1">
            <g>
                <g>
                    <path d="M213.692.002h-18.69v71h18.69V43.894h4.852l16.87 27.108h19.588l-17.09-27.634c9.776-2.181 17.09-10.94 17.09-21.42 0-12.117-9.776-21.946-21.842-21.946h-19.468zm-.018 29.474V14.413h15.871c5.013 0 9.086 3.37 9.086 7.529 0 4.158-4.073 7.534-9.086 7.534H213.674M300.032.002l-.41.012V.002H268.002v71h31.62v-.012l.41.012c15.445 0 27.97-15.889 27.97-35.5 0-19.606-12.525-35.5-27.97-35.5m-1.264 15.297l.184-.006c7.028 0 12.726 9.047 12.726 20.203 0 11.162-5.698 20.215-12.726 20.215l-.184-.006v.006h-12.103V15.293h12.103v.006M395.002.002L359.7.002 341.002.002 341.002 16.787 341.002 27.112 341.002 43.897 341.002 54.217 341.002 71.002 359.7 71.002 395.002 71.002 395.002 54.217 359.7 54.217 359.7 43.897 395.002 43.897 395.002 27.112 359.7 27.112 359.7 16.787 395.002 16.787zM446.16.002h-38.158v71h18.69v-27.11h4.852l16.87 27.11h19.588l-17.09-27.637c9.776-2.18 17.09-10.935 17.09-21.415 0-12.125-9.782-21.948-21.842-21.948m-19.486 29.47V14.41h15.871c5.019 0 9.08 3.376 9.08 7.535 0 4.158-4.061 7.529-9.08 7.529H426.674M129.06 34.866c0-9.629 7.804-17.433 17.433-17.433 9.628 0 17.432 7.804 17.432 17.433s-7.804 17.433-17.432 17.433c-9.629 0-17.433-7.804-17.433-17.433zm-18.058.638c0 19.609 15.888 35.498 35.497 35.498 19.608 0 35.503-15.889 35.503-35.498C182.002 15.9 166.107 0 146.499 0c-19.609 0-35.497 15.9-35.497 35.504zM41.307.002L41.307 27.118 18.694 27.118 18.694.002 0 .002 0 71.002 18.694 71.002 18.694 43.897 41.307 43.897 41.307 71.002 60.002 71.002 60.002 43.897 60.002 27.118 60.002.002zM73.002 44.002L99.002 44.002 99.002 28.002 73.002 28.002z" transform="translate(-659.000000, -327.000000) translate(659.000000, 327.000000) translate(134.000000, 27.000000)"/>
                </g>
                <path d="M69.68 0L0 40.227 0 110.583 23.435 124.114 23.435 46.03 41.103 35.828 41.103 65.276 62.477 52.936 62.477 23.488 80.148 13.286 80.148 42.734 80.148 60.962 80.148 90.399 62.477 100.6 62.477 71.165 41.103 83.504 41.103 126 103.583 89.929 103.583 19.574z" transform="translate(-659.000000, -327.000000) translate(659.000000, 327.000000)"/>
            </g>
        </g>
    </g>
</svg>
