<svg xmlns="http://www.w3.org/2000/svg" width="20" height="20" viewBox="0 0 20 20">
    <g fill="none" fill-opacity=".25" fill-rule="evenodd">
        <g fill="#000">
            <g>
                <g>
                    <path d="M8 0c2.58 0 4.683 2.08 4.795 4.69l.005.22v2.453h.8c1.325 0 2.4 1.1 2.4 2.455v5.727C16 16.901 14.925 18 13.6 18H2.4C1.075 18 0 16.901 0 15.545V9.818c0-1.355 1.075-2.454 2.4-2.454l.799-.001.001-2.454C3.2 2.271 5.234.12 7.786.005L8 0zm5.6 9H2.4c-.442 0-.8.366-.8.818v5.727c0 .452.358.819.8.819h11.2c.442 0 .8-.367.8-.819V9.818c0-.452-.358-.818-.8-.818zM8 1.636c-1.706 0-3.1 1.366-3.195 3.087L4.8 4.91l-.001 2.454H11.2V4.909c0-1.745-1.336-3.171-3.018-3.267L8 1.636z" transform="translate(-32 -379) translate(20 365) translate(12 14) translate(2 1)"/>
                </g>
            </g>
        </g>
    </g>
</svg>
