<svg xmlns="http://www.w3.org/2000/svg" width="30" height="39" viewBox="0 0 30 39">
    <g fill="none" fill-rule="evenodd">
        <g fill="#000" fill-rule="nonzero">
            <g>
                <path d="M65.644 60c1.468 0 2.56-.335 3.279-1.006.718-.67 1.077-1.711 1.077-3.122V41.16c0-1.41-.36-2.452-1.077-3.122-.575-.537-1.39-.859-2.443-.966l-.088-.006.001-4.938c0-1.872-.312-3.503-.936-4.893-.625-1.39-1.48-2.547-2.565-3.469-1.085-.922-2.307-1.613-3.665-2.074C57.87 21.23 56.464 21 55.012 21c-1.468 0-2.88.23-4.24.692-1.357.46-2.575 1.152-3.653 2.074-1.077.922-1.932 2.078-2.564 3.469-.632 1.39-.948 3.02-.948 4.893l-.002 5.027-.216.03c-.841.147-1.545.442-2.113.884-.85.664-1.276 1.694-1.276 3.091v14.712c0 1.41.363 2.451 1.089 3.122.726.67 1.815 1.006 3.267 1.006h21.288zM47 37v-5.047c0-1.506.37-2.777 1.106-3.813.737-1.037 1.712-1.82 2.926-2.348 1.214-.528 2.54-.792 3.98-.792s2.768.264 3.982.792c1.214.529 2.185 1.311 2.913 2.348.729 1.036 1.093 2.307 1.093 3.813v5.02L47 37z" transform="translate(-740.000000, -704.000000) translate(700.000000, 683.000000)"/>
            </g>
        </g>
    </g>
</svg>
