<svg xmlns="http://www.w3.org/2000/svg" xmlns:xlink="http://www.w3.org/1999/xlink" width="724" height="394" viewBox="0 0 724 394">
    <defs>
        <path id="hmzagd22ra" d="M0.368 0.253L54.993 0.253 54.993 41.566 0.368 41.566z"/>
        <path id="ntxcrh1uyc" d="M0.221 0.08L64.881 0.08 64.881 65.129 0.221 65.129z"/>
    </defs>
    <g fill="none" fill-rule="evenodd">
        <g>
            <g>
                <path fill="#E9E9E9" d="M600 90.076c0 15.166-12.313 27.462-27.5 27.462S545 129.833 545 145v-14.076c0-15.168 12.313-27.462 27.5-27.462S600 91.166 600 76v14.076zM124 212c0-15.166-12.311-27.461-27.5-27.461-15.187 0-27.5-12.294-27.5-27.463V143c0 15.168 12.313 27.463 27.5 27.463 15.189 0 27.5 12.295 27.5 27.46V212zM132 294H27.43C12.281 294 0 281.865 0 266.894V253c0 14.97 12.281 27.106 27.43 27.106H132V294zM292 335.106H132.405C117.27 335.106 105 322.97 105 308v13.894c0 14.97 12.27 27.106 27.405 27.106H292v-13.894zM657 307c0 14.97-12.285 27.106-27.44 27.106H399.44c-15.155 0-27.44-12.137-27.44-27.106v13.894c0 14.97 12.285 27.106 27.44 27.106h230.12c15.155 0 27.44-12.136 27.44-27.106V307zM657 186c0 14.97-12.285 27.106-27.44 27.106H399.44c-15.155 0-27.44-12.137-27.44-27.106v13.894c0 14.97 12.285 27.106 27.44 27.106h230.12c15.155 0 27.44-12.136 27.44-27.106V186z" transform="translate(-598.000000, -505.000000) translate(598.000000, 505.000000)"/>
                <path fill="#F3F3F3" d="M361.602 280.25H257.165c15.13 0 27.397-12.255 27.397-27.374 0-15.12-12.267-27.377-27.397-27.377h68.805c15.132 0 27.397-12.255 27.397-27.373 0-15.12-12.265-27.375-27.397-27.375 15.132 0 27.397-12.257 27.397-27.376 0-15.118-12.265-27.375-27.397-27.375H96.203c-15.13 0-27.398 12.257-27.398 27.375 0 15.12 12.267 27.376 27.398 27.376 15.132 0 27.397 12.256 27.397 27.375 0 15.118-12.265 27.373-27.397 27.373H27.396C12.266 225.5 0 237.756 0 252.876c0 15.119 12.266 27.374 27.396 27.374h104.44c-15.132 0-27.398 12.256-27.398 27.375 0 15.118 12.266 27.375 27.397 27.375h229.767C376.734 335 389 322.743 389 307.625c0-15.12-12.266-27.375-27.398-27.375M724 186.5c0 15.187-12.311 27.5-27.5 27.5-15.187 0-27.5-12.313-27.5-27.5s12.313-27.5 27.5-27.5c15.189 0 27.5 12.313 27.5 27.5" transform="translate(-598.000000, -505.000000) translate(598.000000, 505.000000)"/>
                <path fill="#F3F3F3" d="M630.535 159h-57.74c-15.167 0-27.463-12.312-27.463-27.5s12.296-27.5 27.464-27.5c15.169 0 27.466-12.312 27.466-27.499 0-15.188-12.297-27.501-27.466-27.501H342.465C327.297 49 315 61.313 315 76.501 315 91.688 327.297 104 342.465 104 327.297 104 315 116.312 315 131.5s12.297 27.5 27.465 27.5h57.74c-15.17 0-27.465 12.312-27.465 27.5 0 15.187 12.295 27.5 27.464 27.5h230.331C645.703 214 658 201.687 658 186.5c0-15.188-12.297-27.5-27.465-27.5M629.56 279H399.44c-15.155 0-27.44 12.311-27.44 27.5 0 15.187 12.285 27.5 27.44 27.5h230.12c15.154 0 27.44-12.313 27.44-27.5 0-15.189-12.286-27.5-27.44-27.5" transform="translate(-598.000000, -505.000000) translate(598.000000, 505.000000)"/>
                <g transform="translate(-598.000000, -505.000000) translate(598.000000, 505.000000) translate(669.000000, 186.000000)">
                    <mask id="d64hzqw12b" fill="#fff">
                        <use xlink:href="#hmzagd22ra"/>
                    </mask>
                    <path fill="#E9E9E9" d="M.368.253c0 15.084 12.228 27.313 27.313 27.313 15.083 0 27.312-12.23 27.312-27.313v14c0 15.084-12.229 27.313-27.312 27.313-15.085 0-27.313-12.23-27.313-27.313v-14z" mask="url(#d64hzqw12b)"/>
                </g>
                <path fill="#FEFEFE" d="M361.408 29.312c-3.79-9.88-14.887-14.824-24.783-11.04L156.332 87.209c-9.898 3.783-14.848 14.861-11.057 24.742L247.593 378.69c3.79 9.88 14.885 14.823 24.782 11.038l180.293-68.934c9.897-3.784 14.848-14.863 11.058-24.743L361.408 29.312z" transform="translate(-598.000000, -505.000000) translate(598.000000, 505.000000)"/>
                <path fill="#999998" d="M317.539 28.998c-1.696 0-3.295-1.031-3.937-2.712-.833-2.178.255-4.617 2.43-5.452l15.72-6.028c2.174-.83 4.61.256 5.443 2.433.832 2.176-.254 4.617-2.429 5.45l-15.72 6.03c-.497.189-1.005.28-1.507.28zm39.877 1.093l-.021-.058c-1.593-4.162-4.933-7.378-9.16-8.815-2.204-.748-3.386-3.147-2.637-5.354.749-2.207 3.144-3.388 5.346-2.64 6.61 2.248 11.83 7.277 14.326 13.798l-7.854 3.07zm-71.319 10.965c-1.696 0-3.294-1.031-3.937-2.711-.831-2.178.256-4.619 2.428-5.451l15.721-6.031c2.174-.828 4.611.256 5.444 2.432.833 2.178-.254 4.617-2.428 5.451l-15.72 6.03c-.496.19-1.006.28-1.508.28zm-31.442 12.058c-1.696 0-3.294-1.033-3.938-2.713-.832-2.177.256-4.617 2.43-5.451l15.72-6.028c2.175-.83 4.611.254 5.444 2.43.832 2.178-.255 4.618-2.429 5.452l-15.72 6.028c-.497.19-1.005.282-1.507.282zm118.742 11.181c-1.696 0-3.295-1.033-3.937-2.712L363.44 45.84c-.832-2.177.256-4.618 2.43-5.451 2.17-.831 4.61.255 5.442 2.431l6.021 15.744c.832 2.176-.256 4.617-2.429 5.451-.494.189-1.004.28-1.506.28zm-150.184.876c-1.696 0-3.294-1.032-3.937-2.712-.833-2.178.255-4.617 2.43-5.451l15.72-6.028c2.175-.83 4.612.254 5.443 2.432.832 2.176-.255 4.617-2.429 5.451l-15.72 6.029c-.497.188-1.005.28-1.507.28zm-31.442 12.057c-1.696 0-3.294-1.031-3.936-2.712-.834-2.177.254-4.618 2.429-5.452l15.72-6.028c2.174-.83 4.61.256 5.443 2.432.832 2.178-.254 4.617-2.429 5.452l-15.72 6.028c-.497.19-1.005.28-1.507.28zM160.33 89.286c-1.696 0-3.294-1.032-3.936-2.711-.832-2.178.254-4.617 2.429-5.452l15.72-6.028c2.175-.83 4.612.253 5.443 2.431.833 2.178-.254 4.617-2.429 5.452l-15.72 6.028c-.497.19-1.005.28-1.507.28zm225.11 6.494c-1.695 0-3.294-1.033-3.937-2.713l-6.022-15.742c-.833-2.178.255-4.619 2.428-5.451 2.174-.833 4.61.253 5.444 2.43l6.022 15.744c.833 2.176-.255 4.617-2.428 5.452-.497.188-1.006.28-1.506.28zm-240.126 19.27c-1.736 0-3.362-1.083-3.974-2.815-.888-2.515-1.339-5.136-1.339-7.79 0-4.221 1.146-8.377 3.318-12.017 1.193-2 3.781-2.656 5.779-1.458 1.999 1.194 2.652 3.785 1.458 5.786-1.39 2.33-2.126 4.991-2.126 7.688 0 1.694.288 3.367.857 4.977.776 2.198-.373 4.61-2.568 5.386-.465.164-.938.243-1.405.243zm252.167 12.214c-1.696 0-3.294-1.033-3.938-2.712l-6.02-15.744c-.833-2.176.256-4.617 2.43-5.451 2.178-.829 4.61.256 5.443 2.432l6.02 15.742c.832 2.178-.255 4.619-2.429 5.452-.496.19-1.006.281-1.506.281zm-240.13 19.272c-1.696 0-3.295-1.033-3.937-2.712l-6.022-15.741c-.831-2.178.256-4.619 2.43-5.452 2.173-.828 4.61.255 5.443 2.431l6.02 15.743c.834 2.176-.254 4.617-2.427 5.451-.496.188-1.006.28-1.508.28zm252.172 12.211c-1.696 0-3.295-1.031-3.938-2.71l-6.022-15.745c-.832-2.177.256-4.617 2.43-5.45 2.177-.83 4.61.255 5.443 2.431l6.022 15.743c.833 2.177-.256 4.618-2.43 5.451-.495.19-1.004.28-1.505.28zM169.39 178.02c-1.696 0-3.295-1.032-3.937-2.712l-6.021-15.74c-.832-2.179.255-4.62 2.427-5.452 2.175-.83 4.613.253 5.445 2.43l6.021 15.742c.832 2.177-.256 4.618-2.428 5.451-.496.19-1.006.281-1.507.281zm252.17 12.212c-1.695 0-3.292-1.032-3.936-2.711l-6.02-15.743c-.833-2.177.254-4.617 2.428-5.451 2.177-.83 4.61.256 5.444 2.432l6.02 15.741c.833 2.178-.254 4.617-2.428 5.452-.497.19-1.006.28-1.507.28zm-240.129 19.274c-1.695 0-3.294-1.032-3.938-2.712l-6.02-15.744c-.833-2.176.255-4.617 2.43-5.451 2.17-.83 4.609.256 5.442 2.432l6.021 15.743c.832 2.177-.255 4.618-2.429 5.45-.496.19-1.004.282-1.506.282zm252.173 12.21c-1.696 0-3.295-1.031-3.938-2.71l-6.02-15.743c-.834-2.178.255-4.617 2.427-5.452 2.178-.831 4.613.256 5.444 2.433l6.022 15.74c.831 2.178-.256 4.618-2.43 5.452-.495.19-1.005.28-1.505.28zm-240.133 19.273c-1.695 0-3.293-1.03-3.936-2.71l-6.02-15.744c-.832-2.178.256-4.617 2.429-5.452 2.173-.831 4.61.256 5.444 2.433l6.02 15.742c.832 2.178-.256 4.617-2.43 5.451-.495.19-1.005.28-1.507.28zm252.173 12.212c-1.696 0-3.295-1.032-3.938-2.713l-6.02-15.74c-.833-2.178.255-4.618 2.429-5.452 2.177-.833 4.61.256 5.444 2.43l6.02 15.743c.833 2.178-.256 4.617-2.43 5.452-.495.19-1.004.28-1.505.28zm-240.131 19.273c-1.696 0-3.295-1.031-3.937-2.711l-6.02-15.744c-.831-2.177.255-4.617 2.43-5.451 2.174-.83 4.61.256 5.442 2.432l6.02 15.742c.833 2.178-.254 4.618-2.429 5.452-.495.19-1.004.28-1.506.28zm252.172 12.212c-1.696 0-3.293-1.03-3.936-2.712l-6.022-15.742c-.832-2.178.256-4.617 2.43-5.452 2.178-.83 4.61.255 5.443 2.431l6.02 15.744c.834 2.178-.254 4.617-2.427 5.451-.498.19-1.006.28-1.508.28zm-240.13 19.272c-1.696 0-3.295-1.03-3.937-2.712l-6.02-15.742c-.833-2.178.254-4.617 2.429-5.452 2.172-.831 4.61.256 5.443 2.433l6.02 15.742c.833 2.178-.255 4.617-2.43 5.451-.494.19-1.005.28-1.506.28zm244.488 12.705c-.736 0-1.483-.192-2.162-.599-1.996-1.199-2.645-3.791-1.448-5.79 1.398-2.337 2.137-5.005 2.137-7.713 0-1.685-.286-3.352-.848-4.953-.772-2.199.381-4.609 2.578-5.382 2.195-.773 4.603.382 5.374 2.581.88 2.506 1.325 5.112 1.325 7.754 0 4.236-1.153 8.405-3.337 12.051-.79 1.321-2.187 2.051-3.619 2.051zm-29.12 15.541c-1.695 0-3.293-1.03-3.936-2.71-.833-2.178.254-4.62 2.428-5.452l15.72-6.03c2.178-.828 4.612.256 5.445 2.433.831 2.178-.256 4.617-2.43 5.451l-15.719 6.028c-.497.19-1.006.28-1.507.28zm-203.327 3.239c-1.696 0-3.295-1.031-3.937-2.713l-6.021-15.74c-.832-2.178.256-4.618 2.43-5.452 2.17-.828 4.61.256 5.443 2.431l6.02 15.742c.832 2.178-.256 4.618-2.429 5.452-.494.19-1.004.28-1.506.28zm171.886 8.82c-1.696 0-3.293-1.032-3.937-2.712-.833-2.176.254-4.617 2.428-5.451l15.72-6.03c2.176-.831 4.612.255 5.445 2.431.831 2.178-.256 4.619-2.43 5.452l-15.719 6.03c-.497.19-1.006.28-1.507.28zM370.04 356.32c-1.696 0-3.295-1.031-3.938-2.712-.832-2.178.255-4.618 2.429-5.452l15.72-6.028c2.18-.831 4.612.256 5.445 2.432.833 2.177-.256 4.618-2.43 5.452l-15.72 6.028c-.496.188-1.005.28-1.506.28zm-128.402 10.607c-1.696 0-3.295-1.03-3.938-2.712l-6.02-15.74c-.832-2.179.255-4.618 2.429-5.452 2.17-.83 4.61.253 5.444 2.43l6.02 15.743c.831 2.178-.256 4.617-2.43 5.451-.495.19-1.004.28-1.505.28zm96.96 1.45c-1.696 0-3.295-1.03-3.937-2.712-.833-2.176.254-4.617 2.428-5.451l15.72-6.03c2.174-.828 4.612.256 5.443 2.433.834 2.177-.254 4.617-2.427 5.451l-15.721 6.03c-.496.19-1.005.28-1.506.28zm-31.444 12.059c-1.695 0-3.293-1.033-3.936-2.713-.832-2.178.255-4.617 2.429-5.451l15.722-6.028c2.174-.83 4.61.254 5.443 2.43.832 2.178-.256 4.618-2.43 5.452l-15.72 6.028c-.496.19-1.006.282-1.508.282zm-31.442 12.056c-1.695 0-3.293-1.033-3.936-2.712-.832-2.178.255-4.618 2.429-5.452l15.72-6.028c2.174-.829 4.612.256 5.445 2.43.832 2.179-.256 4.62-2.43 5.452l-15.72 6.03c-.496.188-1.006.28-1.508.28zM259.383 394c-.451 0-.91-.073-1.362-.228-6.592-2.254-11.8-7.277-14.288-13.787l7.864-3.04.01.03c1.59 4.155 4.92 7.367 9.137 8.81 2.203.752 3.379 3.152 2.627 5.358-.597 1.753-2.235 2.857-3.988 2.857z" transform="translate(-598.000000, -505.000000) translate(598.000000, 505.000000)"/>
                <path fill="#FEFEFE" d="M421.382 5h-155.23C255.575 5 247 13.579 247 24.162v285.676C247 320.42 255.575 329 266.152 329h192.696c10.577 0 19.152-8.58 19.152-19.162V61.642L421.382 5z" transform="translate(-598.000000, -505.000000) translate(598.000000, 505.000000)"/>
                <path fill="#999998" d="M266.422 8.443c-8.258 0-14.977 6.716-14.977 14.974v286.166c0 8.256 6.72 14.974 14.977 14.974h193.156c8.26 0 14.977-6.718 14.977-14.974V62.71l-54.28-54.266H266.422zM459.578 333H266.422C253.507 333 243 322.496 243 309.583V23.417C243 10.504 253.507 0 266.422 0h157.35L483 59.212v250.371C483 322.496 472.493 333 459.578 333z" transform="translate(-598.000000, -505.000000) translate(598.000000, 505.000000)"/>
                <path fill="#FEFEFE" d="M440.282 61C429.634 61 421 52.368 421 41.718V4l57 57h-37.718z" transform="translate(-598.000000, -505.000000) translate(598.000000, 505.000000)"/>
                <g transform="translate(-598.000000, -505.000000) translate(598.000000, 505.000000) translate(417.000000, 0.000000)">
                    <mask id="d5xqhzhoqd" fill="#fff">
                        <use xlink:href="#ntxcrh1uyc"/>
                    </mask>
                    <path fill="#999998" d="M8.596 14.464v27.298c0 8.24 6.662 14.942 14.853 14.942h27.133L8.596 14.464zm52.096 50.665H23.45C10.64 65.13.22 54.646.22 41.762V4.294C.22 2.589 1.24 1.053 2.806.4c1.566-.654 3.368-.29 4.563.915l56.284 56.622c1.2 1.203 1.558 3.016.909 4.592-.648 1.574-2.175 2.6-3.87 2.6z" mask="url(#d5xqhzhoqd)"/>
                </g>
                <path fill="#FEFEFE" d="M275 38.5L385 38.5" transform="translate(-598.000000, -505.000000) translate(598.000000, 505.000000)"/>
                <path fill="#999998" d="M384.788 42H275.212c-2.325 0-4.212-1.79-4.212-4s1.887-4 4.212-4h109.576c2.326 0 4.212 1.79 4.212 4s-1.886 4-4.212 4" transform="translate(-598.000000, -505.000000) translate(598.000000, 505.000000)"/>
                <path fill="#FEFEFE" d="M275 91.5L432 91.5" transform="translate(-598.000000, -505.000000) translate(598.000000, 505.000000)"/>
                <path fill="#999998" d="M432.77 96H275.23c-2.336 0-4.23-1.79-4.23-4s1.894-4 4.23-4h157.54c2.336 0 4.23 1.79 4.23 4s-1.894 4-4.23 4" transform="translate(-598.000000, -505.000000) translate(598.000000, 505.000000)"/>
                <path fill="#FEFEFE" d="M275 145.5L432 145.5" transform="translate(-598.000000, -505.000000) translate(598.000000, 505.000000)"/>
                <path fill="#999998" d="M432.77 149H275.23c-2.336 0-4.23-1.79-4.23-4s1.894-4 4.23-4h157.54c2.336 0 4.23 1.79 4.23 4s-1.894 4-4.23 4" transform="translate(-598.000000, -505.000000) translate(598.000000, 505.000000)"/>
                <path fill="#FEFEFE" d="M275 198.5L432 198.5" transform="translate(-598.000000, -505.000000) translate(598.000000, 505.000000)"/>
                <path fill="#999998" d="M432.77 203H275.23c-2.336 0-4.23-1.79-4.23-4s1.894-4 4.23-4h157.54c2.336 0 4.23 1.79 4.23 4s-1.894 4-4.23 4" transform="translate(-598.000000, -505.000000) translate(598.000000, 505.000000)"/>
                <path fill="#FEFEFE" d="M275 252.5L385 252.5" transform="translate(-598.000000, -505.000000) translate(598.000000, 505.000000)"/>
                <path fill="#999998" d="M384.788 257H275.212c-2.325 0-4.212-1.79-4.212-4s1.887-4 4.212-4h109.576c2.326 0 4.212 1.79 4.212 4s-1.886 4-4.212 4" transform="translate(-598.000000, -505.000000) translate(598.000000, 505.000000)"/>
            </g>
        </g>
    </g>
</svg>
