<svg xmlns="http://www.w3.org/2000/svg" width="36" height="17" viewBox="0 0 36 17">
    <g fill="none" fill-rule="evenodd">
        <g>
            <g>
                <path stroke="#000" d="M29.581.5H3.42C2.37.5 1.985.591 1.6.797c-.346.185-.618.457-.803.803C.591 1.985.5 2.371.5 3.419V13.58c0 1.048.091 1.434.297 1.819.185.346.457.618.803.803.385.206.771.297 1.819.297H29.58c1.048 0 1.434-.091 1.819-.297.346-.185.618-.457.803-.803.206-.385.297-.771.297-1.819V3.42c0-1.048-.091-1.434-.297-1.819-.185-.346-.457-.618-.803-.803C31.015.591 30.629.5 29.581.5z" opacity=".35" transform="translate(-979 -47) translate(979 47)"/>
                <path fill="#000" fill-rule="nonzero" d="M34 5v6c1.212-.508 2-1.69 2-3s-.788-2.492-2-3" opacity=".4" transform="translate(-979 -47) translate(979 47)"/>
                <path fill="#000" fill-rule="nonzero" d="M4.71 3h6.58c.595 0 .81.062 1.028.178.217.116.388.287.504.504.116.217.178.433.178 1.027v7.582c0 .594-.062.81-.178 1.027-.116.217-.287.388-.504.504-.217.116-.433.178-1.027.178H4.709c-.594 0-.81-.062-1.027-.178-.217-.116-.388-.287-.504-.504C3.062 13.1 3 12.885 3 12.29V4.709c0-.594.062-.81.178-1.027.116-.217.287-.388.504-.504C3.9 3.062 4.115 3 4.71 3z" transform="translate(-979 -47) translate(979 47)"/>
            </g>
        </g>
    </g>
</svg>
