<svg xmlns="http://www.w3.org/2000/svg" width="23" height="17" viewBox="0 0 23 17">
    <g fill="none" fill-rule="evenodd">
        <g fill-rule="nonzero">
            <g>
                <path fill="#D9D9D9" d="M11.5 3.36c3.338.001 6.547 1.258 8.966 3.51.182.175.473.173.652-.004l1.741-1.722c.091-.09.142-.21.141-.337 0-.127-.053-.247-.145-.336-6.348-5.961-16.362-5.961-22.71 0-.092.089-.144.21-.145.336 0 .126.05.247.14.337l1.742 1.722c.18.177.47.179.652.005 2.42-2.254 5.63-3.51 8.967-3.51z" transform="translate(-593 -34) translate(593 34)"/>
                <path fill="#D9D9D9" d="M11.498 9.763c1.836 0 3.606.747 4.967 2.096.184.192.473.187.653-.01l1.74-1.926c.092-.1.143-.238.142-.38-.001-.143-.055-.278-.148-.377-4.144-4.221-10.56-4.221-14.704 0-.093.099-.147.235-.148.377-.001.142.05.28.142.38l1.74 1.927c.18.196.47.2.653.01 1.36-1.35 3.129-2.096 4.963-2.097z" transform="translate(-593 -34) translate(593 34)"/>
                <path fill="#000" d="M14.858 13.876c.093-.09.145-.213.142-.341-.003-.129-.06-.25-.156-.336-1.93-1.599-4.757-1.599-6.687 0-.097.086-.154.207-.157.335-.003.129.049.252.142.342l3.023 2.987c.088.088.21.137.335.137.126 0 .247-.05.336-.137l3.022-2.987z" transform="translate(-593 -34) translate(593 34)"/>
            </g>
        </g>
    </g>
</svg>
