<svg xmlns="http://www.w3.org/2000/svg" width="24" height="25" viewBox="0 0 24 25">
    <g fill="none" fill-rule="evenodd">
        <g fill="#000">
            <g>
                <path fill-rule="nonzero" d="M11.5 8.214c3.338 0 6.547 1.257 8.966 3.51.182.174.473.172.652-.005l1.741-1.721c.091-.09.142-.211.141-.338 0-.126-.053-.247-.145-.335-6.348-5.962-16.362-5.962-22.71 0-.092.088-.144.209-.145.335 0 .127.05.248.14.338l1.742 1.721c.18.177.47.18.652.005 2.42-2.253 5.63-3.51 8.967-3.51z" transform="translate(-563 -29) translate(563 29.146)"/>
                <path fill-rule="nonzero" d="M11.498 14.616c1.836 0 3.606.747 4.967 2.097.184.191.473.187.653-.01l1.74-1.926c.092-.101.143-.238.142-.38-.001-.143-.055-.279-.148-.378-4.144-4.22-10.56-4.22-14.704 0-.093.1-.147.235-.148.378-.001.142.05.28.142.38l1.74 1.926c.18.197.47.201.653.01 1.36-1.349 3.129-2.096 4.963-2.097z" transform="translate(-563 -29) translate(563 29.146)"/>
                <path fill-rule="nonzero" d="M14.858 18.73c.093-.09.145-.214.142-.342-.003-.128-.06-.25-.156-.335-1.93-1.6-4.757-1.6-6.687 0-.097.085-.154.207-.157.335-.003.128.049.252.142.342l3.023 2.986c.088.088.21.138.335.138.126 0 .247-.05.336-.138l3.022-2.986z" transform="translate(-563 -29) translate(563 29.146)"/>
                <path stroke="#FFF" d="M9.854 -1.5H13.854V25.5H9.854z" transform="translate(-563 -29) translate(563 29.146) rotate(45 11.854 12)"/>
            </g>
        </g>
    </g>
</svg>
