<svg xmlns="http://www.w3.org/2000/svg" width="512" height="512" viewBox="0 0 512 512">
    <g fill="none" fill-rule="evenodd">
        <g>
            <g>
                <path fill="#333" d="M0 0H512V512H0z"/>
                <path fill="#FFF" fill-rule="nonzero" d="M236 342v-9.5l-25.25-2.75c-.5-23.75-.5-48.25-.5-76.25h89.25c0 28.5 0 52.75-.5 76.25l-25.25 2.75v9.5h76.75v-9.5l-25.5-2.75c-.458-22.23-.497-44.458-.5-66.495l.001-28.691c.007-21.427.062-42.783.499-63.564l25.5-2.75v-9.5h-76.75v9.5L299 171c.5 23.75.5 47.75.5 71.75h-89.25c0-24.25 0-48.25.5-71.75l25.25-2.75v-9.5h-76.75v9.5l25.5 2.75c.5 24 .5 48.25.5 72.75v13.5c0 24.5 0 48.5-.5 72.5l-25.5 2.75v9.5H236z"/>
            </g>
        </g>
    </g>
</svg>
